<mxfile host="app.diagrams.net" modified="2021-10-27T07:34:11.316Z" agent="5.0 (Macintosh; Intel Mac OS X 10_14_6) AppleWebKit/537.36 (KHTML, like Gecko) Chrome/95.0.4638.54 Safari/537.36" etag="SSSvdcg61qbnXBFv_-Qc" version="15.5.9" type="github">
  <diagram id="Qz5lyrTcZwH7CDV3pjeY" name="Page-1">
    <mxGraphModel dx="1426" dy="794" grid="1" gridSize="10" guides="1" tooltips="1" connect="1" arrows="1" fold="1" page="1" pageScale="1" pageWidth="827" pageHeight="1169" math="0" shadow="0">
      <root>
        <mxCell id="0" />
        <mxCell id="1" parent="0" />
        <mxCell id="-zgxbztw6Kt0W_d6xRQI-1" value="Actor" style="shape=umlActor;verticalLabelPosition=bottom;verticalAlign=top;html=1;outlineConnect=0;" vertex="1" parent="1">
          <mxGeometry x="425" y="30" width="30" height="60" as="geometry" />
        </mxCell>
        <mxCell id="-zgxbztw6Kt0W_d6xRQI-31" value="" style="edgeStyle=elbowEdgeStyle;rounded=0;orthogonalLoop=1;jettySize=auto;html=1;endArrow=none;endFill=0;opacity=40;" edge="1" parent="1" source="-zgxbztw6Kt0W_d6xRQI-2" target="-zgxbztw6Kt0W_d6xRQI-1">
          <mxGeometry relative="1" as="geometry" />
        </mxCell>
        <mxCell id="-zgxbztw6Kt0W_d6xRQI-2" value="" style="rounded=0;whiteSpace=wrap;html=1;" vertex="1" parent="1">
          <mxGeometry x="380" y="130" width="120" height="60" as="geometry" />
        </mxCell>
        <mxCell id="-zgxbztw6Kt0W_d6xRQI-3" value="Frontend" style="rounded=1;whiteSpace=wrap;html=1;" vertex="1" parent="1">
          <mxGeometry x="393" y="135" width="94" height="50" as="geometry" />
        </mxCell>
        <mxCell id="-zgxbztw6Kt0W_d6xRQI-5" value="" style="rounded=0;whiteSpace=wrap;html=1;" vertex="1" parent="1">
          <mxGeometry x="380" y="240" width="120" height="60" as="geometry" />
        </mxCell>
        <mxCell id="-zgxbztw6Kt0W_d6xRQI-6" value="API Gateway" style="rounded=1;whiteSpace=wrap;html=1;" vertex="1" parent="1">
          <mxGeometry x="393" y="245" width="94" height="50" as="geometry" />
        </mxCell>
        <mxCell id="-zgxbztw6Kt0W_d6xRQI-7" value="" style="rounded=0;whiteSpace=wrap;html=1;" vertex="1" parent="1">
          <mxGeometry x="110" y="240" width="210" height="60" as="geometry" />
        </mxCell>
        <mxCell id="-zgxbztw6Kt0W_d6xRQI-9" value="Calculator" style="rounded=1;whiteSpace=wrap;html=1;" vertex="1" parent="1">
          <mxGeometry x="119" y="245" width="94" height="50" as="geometry" />
        </mxCell>
        <mxCell id="-zgxbztw6Kt0W_d6xRQI-12" value="" style="rounded=0;whiteSpace=wrap;html=1;" vertex="1" parent="1">
          <mxGeometry x="132" y="350" width="343" height="180" as="geometry" />
        </mxCell>
        <mxCell id="-zgxbztw6Kt0W_d6xRQI-16" value="" style="edgeStyle=orthogonalEdgeStyle;rounded=0;orthogonalLoop=1;jettySize=auto;html=1;endArrow=none;endFill=0;entryX=0.5;entryY=1;entryDx=0;entryDy=0;exitX=0.5;exitY=0;exitDx=0;exitDy=0;" edge="1" parent="1" source="-zgxbztw6Kt0W_d6xRQI-15" target="-zgxbztw6Kt0W_d6xRQI-17">
          <mxGeometry relative="1" as="geometry">
            <mxPoint x="260" y="290" as="targetPoint" />
          </mxGeometry>
        </mxCell>
        <mxCell id="-zgxbztw6Kt0W_d6xRQI-18" value="" style="edgeStyle=orthogonalEdgeStyle;rounded=0;orthogonalLoop=1;jettySize=auto;html=1;endArrow=none;endFill=0;entryX=0.5;entryY=1;entryDx=0;entryDy=0;" edge="1" parent="1" source="-zgxbztw6Kt0W_d6xRQI-13" target="-zgxbztw6Kt0W_d6xRQI-5">
          <mxGeometry relative="1" as="geometry">
            <Array as="points">
              <mxPoint x="295" y="330" />
              <mxPoint x="440" y="330" />
            </Array>
          </mxGeometry>
        </mxCell>
        <mxCell id="-zgxbztw6Kt0W_d6xRQI-13" value="Rest API" style="rounded=1;whiteSpace=wrap;html=1;" vertex="1" parent="1">
          <mxGeometry x="250" y="370" width="107" height="35" as="geometry" />
        </mxCell>
        <mxCell id="-zgxbztw6Kt0W_d6xRQI-14" value="" style="edgeStyle=orthogonalEdgeStyle;rounded=0;orthogonalLoop=1;jettySize=auto;html=1;endArrow=none;endFill=0;entryX=1;entryY=0.5;entryDx=0;entryDy=0;" edge="1" parent="1" source="-zgxbztw6Kt0W_d6xRQI-6" target="-zgxbztw6Kt0W_d6xRQI-17">
          <mxGeometry relative="1" as="geometry">
            <mxPoint x="307" y="267.5" as="targetPoint" />
          </mxGeometry>
        </mxCell>
        <mxCell id="-zgxbztw6Kt0W_d6xRQI-15" value="Calculator Service" style="rounded=1;whiteSpace=wrap;html=1;" vertex="1" parent="1">
          <mxGeometry x="143" y="370" width="107" height="35" as="geometry" />
        </mxCell>
        <mxCell id="-zgxbztw6Kt0W_d6xRQI-17" value="Rest API" style="rounded=1;whiteSpace=wrap;html=1;" vertex="1" parent="1">
          <mxGeometry x="213" y="245" width="94" height="50" as="geometry" />
        </mxCell>
        <mxCell id="-zgxbztw6Kt0W_d6xRQI-19" value="3rd Party Service" style="rounded=1;whiteSpace=wrap;html=1;" vertex="1" parent="1">
          <mxGeometry x="357" y="370" width="107" height="35" as="geometry" />
        </mxCell>
        <mxCell id="-zgxbztw6Kt0W_d6xRQI-22" value="" style="edgeStyle=elbowEdgeStyle;endArrow=none;html=1;rounded=0;endFill=0;exitX=1;exitY=0.5;exitDx=0;exitDy=0;entryX=0;entryY=0.5;entryDx=0;entryDy=0;" edge="1" parent="1" source="-zgxbztw6Kt0W_d6xRQI-19" target="-zgxbztw6Kt0W_d6xRQI-20">
          <mxGeometry width="50" height="50" relative="1" as="geometry">
            <mxPoint x="450" y="390" as="sourcePoint" />
            <mxPoint x="550" y="360" as="targetPoint" />
            <Array as="points">
              <mxPoint x="520" y="350" />
            </Array>
          </mxGeometry>
        </mxCell>
        <mxCell id="-zgxbztw6Kt0W_d6xRQI-20" value="3rd Party API" style="rounded=1;whiteSpace=wrap;html=1;" vertex="1" parent="1">
          <mxGeometry x="570" y="300" width="107" height="35" as="geometry" />
        </mxCell>
        <mxCell id="-zgxbztw6Kt0W_d6xRQI-23" value="CSV Exporter" style="rounded=1;whiteSpace=wrap;html=1;" vertex="1" parent="1">
          <mxGeometry x="357" y="440" width="107" height="35" as="geometry" />
        </mxCell>
        <mxCell id="-zgxbztw6Kt0W_d6xRQI-24" value="" style="shape=cylinder3;whiteSpace=wrap;html=1;boundedLbl=1;backgroundOutline=1;size=15;" vertex="1" parent="1">
          <mxGeometry x="166.5" y="475" width="60" height="50" as="geometry" />
        </mxCell>
        <mxCell id="-zgxbztw6Kt0W_d6xRQI-25" value="Validation" style="rounded=1;whiteSpace=wrap;html=1;" vertex="1" parent="1">
          <mxGeometry x="250" y="440" width="107" height="35" as="geometry" />
        </mxCell>
        <mxCell id="-zgxbztw6Kt0W_d6xRQI-26" value="ORM" style="rounded=1;whiteSpace=wrap;html=1;" vertex="1" parent="1">
          <mxGeometry x="143" y="440" width="107" height="35" as="geometry" />
        </mxCell>
        <mxCell id="-zgxbztw6Kt0W_d6xRQI-27" value="RestAPI" style="rounded=1;whiteSpace=wrap;html=1;" vertex="1" parent="1">
          <mxGeometry x="357" y="405" width="107" height="35" as="geometry" />
        </mxCell>
        <mxCell id="-zgxbztw6Kt0W_d6xRQI-28" value="Application" style="rounded=1;whiteSpace=wrap;html=1;" vertex="1" parent="1">
          <mxGeometry x="250" y="405" width="107" height="35" as="geometry" />
        </mxCell>
        <mxCell id="-zgxbztw6Kt0W_d6xRQI-29" value="Transformer" style="rounded=1;whiteSpace=wrap;html=1;" vertex="1" parent="1">
          <mxGeometry x="143" y="405" width="107" height="35" as="geometry" />
        </mxCell>
        <mxCell id="-zgxbztw6Kt0W_d6xRQI-30" value="" style="edgeStyle=elbowEdgeStyle;rounded=0;orthogonalLoop=1;jettySize=auto;html=1;endArrow=none;endFill=0;" edge="1" parent="1" source="-zgxbztw6Kt0W_d6xRQI-3" target="-zgxbztw6Kt0W_d6xRQI-6">
          <mxGeometry relative="1" as="geometry" />
        </mxCell>
        <mxCell id="-zgxbztw6Kt0W_d6xRQI-33" value="" style="rounded=0;whiteSpace=wrap;html=1;" vertex="1" parent="1">
          <mxGeometry x="530" y="400" width="290" height="107.5" as="geometry" />
        </mxCell>
        <mxCell id="-zgxbztw6Kt0W_d6xRQI-40" value="" style="edgeStyle=elbowEdgeStyle;rounded=0;orthogonalLoop=1;jettySize=auto;html=1;endArrow=none;endFill=0;" edge="1" parent="1" source="-zgxbztw6Kt0W_d6xRQI-34" target="-zgxbztw6Kt0W_d6xRQI-27">
          <mxGeometry relative="1" as="geometry" />
        </mxCell>
        <mxCell id="-zgxbztw6Kt0W_d6xRQI-34" value="Import Service" style="rounded=1;whiteSpace=wrap;html=1;" vertex="1" parent="1">
          <mxGeometry x="540" y="405" width="107" height="35" as="geometry" />
        </mxCell>
        <mxCell id="-zgxbztw6Kt0W_d6xRQI-35" value="ORM" style="rounded=1;whiteSpace=wrap;html=1;" vertex="1" parent="1">
          <mxGeometry x="647" y="405" width="107" height="35" as="geometry" />
        </mxCell>
        <mxCell id="-zgxbztw6Kt0W_d6xRQI-42" value="" style="edgeStyle=elbowEdgeStyle;rounded=0;orthogonalLoop=1;jettySize=auto;html=1;endArrow=none;endFill=0;entryX=1;entryY=0.5;entryDx=0;entryDy=0;" edge="1" parent="1" source="-zgxbztw6Kt0W_d6xRQI-39" target="-zgxbztw6Kt0W_d6xRQI-23">
          <mxGeometry relative="1" as="geometry" />
        </mxCell>
        <mxCell id="-zgxbztw6Kt0W_d6xRQI-39" value="CSV Importer" style="rounded=1;whiteSpace=wrap;html=1;" vertex="1" parent="1">
          <mxGeometry x="540" y="440" width="107" height="35" as="geometry" />
        </mxCell>
        <mxCell id="-zgxbztw6Kt0W_d6xRQI-43" value="" style="shape=cylinder3;whiteSpace=wrap;html=1;boundedLbl=1;backgroundOutline=1;size=15;" vertex="1" parent="1">
          <mxGeometry x="754" y="405" width="60" height="50" as="geometry" />
        </mxCell>
      </root>
    </mxGraphModel>
  </diagram>
</mxfile>
